<svg xmlns="http://www.w3.org/2000/svg" viewBox="0 0 75.17 47.01"><defs><style>.cls-1{fill:none;stroke:#121212;stroke-miterlimit:10;stroke-width:2px;}.cls-2{fill:#f05454;}</style></defs><g id="Layer_2" data-name="Layer 2"><g id="Layer_1-2" data-name="Layer 1"><path class="cls-1" d="M71.45,27.87a17.5,17.5,0,0,1-30.21-1.11"/><path class="cls-1" d="M73.48,23.37a17.5,17.5,0,1,0-33.94-1.26"/><path class="cls-1" d="M59.87,5.25a13.62,13.62,0,0,0-11.06,24.4"/><path class="cls-1" d="M64.38,7.29a13.62,13.62,0,0,1-11.07,24.4"/><path class="cls-1" d="M47.81,17.11a9,9,0,1,0,2.12-4.47"/><circle class="cls-2" cx="56.73" cy="18.58" r="6"/><path class="cls-1" d="M1.59,33A17.5,17.5,0,0,1,22.9,11.57"/><path class="cls-1" d="M3.52,37.56a17.51,17.51,0,1,0,24-24.09"/><path class="cls-1" d="M26.07,39.85A13.62,13.62,0,0,0,15.65,15.17"/><path class="cls-1" d="M21.51,41.78A13.62,13.62,0,0,1,11.09,17.1"/><path class="cls-1" d="M25.53,23a9,9,0,1,0,1.86,4.59"/><circle class="cls-2" cx="18.41" cy="28.5" r="6"/></g></g></svg>